<?xml version="1.0" encoding="UTF-8" standalone="no"?>
<svg
   xmlns:dc="http://purl.org/dc/elements/1.1/"
   xmlns:cc="http://creativecommons.org/ns#"
   xmlns:rdf="http://www.w3.org/1999/02/22-rdf-syntax-ns#"
   xmlns:svg="http://www.w3.org/2000/svg"
   xmlns="http://www.w3.org/2000/svg"
   xmlns:sodipodi="http://sodipodi.sourceforge.net/DTD/sodipodi-0.dtd"
   xmlns:inkscape="http://www.inkscape.org/namespaces/inkscape"
   inkscape:export-ydpi="36"
   inkscape:export-xdpi="36"
   inkscape:export-filename="Q:\src\Keyhunter\keyhunter2.png"
   width="128"
   height="128"
   viewBox="0 0 33.866666 33.866668"
   version="1.1"
   id="svg8"
   inkscape:version="0.48.4 r9939"
   sodipodi:docname="keyhunter_bwht.svg">
  <defs
     id="defs2" />
  <sodipodi:namedview
     inkscape:snap-bbox="true"
     id="base"
     pagecolor="#ffffff"
     bordercolor="#666666"
     borderopacity="1.0"
     inkscape:pageopacity="0.0"
     inkscape:pageshadow="2"
     inkscape:zoom="2.7503168"
     inkscape:cx="45.563984"
     inkscape:cy="77.753597"
     inkscape:document-units="px"
     inkscape:current-layer="layer1"
     inkscape:document-rotation="0"
     showgrid="false"
     units="px"
     inkscape:window-width="1920"
     inkscape:window-height="1058"
     inkscape:window-x="-8"
     inkscape:window-y="-8"
     inkscape:window-maximized="1"
     inkscape:snap-global="false"
     inkscape:object-paths="true"
     inkscape:snap-intersection-paths="true"
     inkscape:snap-smooth-nodes="true"
     inkscape:snap-midpoints="true">
    <inkscape:grid
       type="xygrid"
       id="grid833"
       empspacing="4" />
  </sodipodi:namedview>
  <metadata
     id="metadata5">
    <rdf:RDF>
      <cc:Work
         rdf:about="">
        <dc:format>image/svg+xml</dc:format>
        <dc:type
           rdf:resource="http://purl.org/dc/dcmitype/StillImage" />
        <dc:title></dc:title>
      </cc:Work>
    </rdf:RDF>
  </metadata>
  <g
     inkscape:label="Layer 1"
     inkscape:groupmode="layer"
     id="layer1">
    <g
       id="g3053"
       style="opacity:0.25">
      <path
         sodipodi:nodetypes="ccccc"
         inkscape:connector-curvature="0"
         id="path843"
         d="m 11.641667,8.4666667 c -3.1750003,5.2916663 -3.1750003,11.6416673 0,16.9333333 4.233333,6.35 6.35,6.35 10.583333,0 C 25.4,20.108334 25.4,13.758333 22.225,8.4666667 19.05,3.175 14.816667,3.175 11.641667,8.4666667 Z"
         style="fill:none;stroke:#000000;stroke-width:0.52916700000000005;stroke-linecap:round;stroke-linejoin:round;stroke-miterlimit:4;stroke-dasharray:none;fill-opacity:1" />
      <path
         d="M 96 72 L 95.318359 73.134766 C 94.098662 81.571881 91.18868 89.854155 86.574219 97.544922 A 3.0002999 3.0002999 0 0 1 86.494141 97.662109 C 82.430136 103.75811 78.846993 108.41708 75.287109 111.70312 C 75.246969 111.74018 75.206198 111.77187 75.166016 111.80859 C 80.025677 111.36264 89.111316 109.77737 92 104 C 95.999999 96.000003 96 72 96 72 z "
         style="opacity:1;fill:#000000;stroke:none;stroke-width:0.99999899999999997;stroke-linecap:round;stroke-linejoin:round;stroke-miterlimit:4;stroke-dasharray:none"
         id="path845-4"
         transform="scale(0.26458334)" />
      <path
         d="M 57.195312 115.04297 C 59.600215 118.63273 61.56336 122.50687 62 126 L 66 126 C 66.43664 122.50687 68.399785 118.63273 70.804688 115.04297 C 68.616285 116.289 66.358158 117.00391 64.001953 117.00391 C 61.645207 117.00391 59.384181 116.28954 57.195312 115.04297 z "
         style="opacity:1;fill:#000000;stroke:none;stroke-width:6;stroke-linecap:butt;stroke-linejoin:round;stroke-miterlimit:4;stroke-dasharray:none"
         id="path1053"
         transform="scale(0.26458334)" />
      <g
         id="g1286">
        <path
           style="opacity:1;fill:#000000;stroke:none;stroke-width:1.58749999999999990;stroke-linecap:butt;stroke-linejoin:round;stroke-miterlimit:4;stroke-dasharray:none"
           d="m 31.714581,15.558657 c 0.864213,0.6004 1.04381,1.088799 0.444066,2.099587 -0.599744,1.010789 -1.023725,1.277424 -2.128855,0.531324 -1.105128,-0.7461 -0.914028,-0.744387 -0.378237,-2.083493 0.535789,-1.339106 1.198813,-1.147817 2.063026,-0.547418 z"
           id="path1070"
           inkscape:connector-curvature="0"
           sodipodi:nodetypes="zzzzz" />
        <path
           style="opacity:1;fill:#000000;stroke:none;stroke-width:1.58749999999999990;stroke-linecap:butt;stroke-linejoin:round;stroke-miterlimit:4;stroke-dasharray:none"
           d="m 29.249207,18.092908 c 0,0 -1.590336,2.745916 -1.940111,3.886337 -0.34978,1.140421 -1.328304,1.942345 -1.767518,2.747573 -0.439215,0.805229 -0.489482,2.37829 -1.167102,3.237006 -0.67762,0.858716 -2.64078,1.659608 -3.713393,2.20406 -1.072613,0.544453 -1.776668,1.236069 -1.776668,1.236069 0.905935,0.01197 6.497262,-1.606806 8.220763,-5.31636 1.723501,-3.709554 2.04539,-4.980762 3.499629,-7.194136 -0.513965,-0.17177 -1.027931,-0.496263 -1.3556,-0.800549 z"
           id="path1072"
           inkscape:connector-curvature="0"
           sodipodi:nodetypes="czzzzczcc" />
        <path
           style="opacity:1;fill:#000000;stroke:none;stroke-width:0.26458300000000001;stroke-linecap:butt;stroke-linejoin:round;stroke-miterlimit:4;stroke-dasharray:none"
           d="m 28.503206,17.884364 c 0.31597,-0.773803 0.921734,-2.614708 1.524235,-3.031535 -0.233916,-0.224811 -0.889706,-0.355631 -1.168579,-0.355655 0.02538,0.711355 -0.291462,2.496684 -0.355656,3.38719 z"
           id="path1150"
           inkscape:connector-curvature="0"
           sodipodi:nodetypes="cccc" />
      </g>
      <g
         id="g1281">
        <g
           id="g1169">
          <path
             sodipodi:nodetypes="czccc"
             inkscape:connector-curvature="0"
             id="path1110"
             d="M 25.88948,23.496863 C 28.256575,20.027056 28.366748,13.784915 28.256179,12.161089 28.14561,10.537264 25.299041,7.4294842 22.930528,0.80707864 23.027138,3.5518722 23.870526,5.5715514 23.205615,7.8276866 25.006251,10.562902 27.063477,18.509092 25.88948,23.496863 Z"
             style="opacity:1;fill:none;stroke:#000000;stroke-width:0.52916700000000005;stroke-linecap:butt;stroke-linejoin:round;stroke-miterlimit:4;stroke-dasharray:none;fill-opacity:1" />
          <path
             inkscape:connector-curvature="0"
             id="path1114"
             d="m 24.478355,10.505154 1.178463,1.380485"
             style="opacity:1;fill:none;stroke:#000000;stroke-width:0.26458300000000001;stroke-linecap:butt;stroke-linejoin:round;stroke-miterlimit:4;stroke-dasharray:none" />
          <path
             inkscape:connector-curvature="0"
             id="path1116"
             d="m 23.569255,6.3973693 0.538726,1.4141554 0.841759,0.7407478 0.303033,1.2458034 0.774418,1.8182001"
             style="opacity:1;fill:none;stroke:#000000;stroke-width:0.26458300000000001;stroke-linecap:butt;stroke-linejoin:round;stroke-miterlimit:4;stroke-dasharray:none" />
          <path
             sodipodi:nodetypes="ccc"
             inkscape:connector-curvature="0"
             id="path1118"
             d="M 24.924666,8.5369897 24.478355,7.0034358 23.489019,5.5231337"
             style="opacity:1;fill:none;stroke:#000000;stroke-width:0.26458300000000001;stroke-linecap:butt;stroke-linejoin:round;stroke-miterlimit:4;stroke-dasharray:none" />
          <path
             inkscape:connector-curvature="0"
             id="path1120"
             d="M 24.478355,7.0034358 24.242663,5.6229508 24.512025,4.7475215"
             style="opacity:1;fill:none;stroke:#000000;stroke-width:0.26458300000000001;stroke-linecap:butt;stroke-linejoin:round;stroke-miterlimit:4;stroke-dasharray:none" />
          <path
             inkscape:connector-curvature="0"
             id="path1122"
             d="M 25.455751,8.3817716 25.861705,9.4802375 27.12733,9.981711"
             style="opacity:1;fill:none;stroke:#000000;stroke-width:0.26458300000000001;stroke-linecap:butt;stroke-linejoin:round;stroke-miterlimit:4;stroke-dasharray:none" />
          <path
             inkscape:connector-curvature="0"
             id="path1124"
             d="m 25.073676,7.4027042 1.002947,0.5969924"
             style="opacity:1;fill:none;stroke:#000000;stroke-width:0.26458300000000001;stroke-linecap:butt;stroke-linejoin:round;stroke-miterlimit:4;stroke-dasharray:none" />
          <path
             inkscape:connector-curvature="0"
             id="path1128"
             d="m 25.981104,11.486131 0.955187,2.173052 0.09552,3.820751 -0.668631,4.823698"
             style="opacity:1;fill:none;stroke:#000000;stroke-width:0.26458300000000001;stroke-linecap:butt;stroke-linejoin:round;stroke-miterlimit:4;stroke-dasharray:none" />
          <path
             inkscape:connector-curvature="0"
             id="path1130"
             d="m 25.575149,11.844327 0.644752,1.886495 0.76415,1.982015"
             style="opacity:1;fill:none;stroke:#000000;stroke-width:0.26458300000000001;stroke-linecap:butt;stroke-linejoin:round;stroke-miterlimit:4;stroke-dasharray:none" />
          <path
             inkscape:connector-curvature="0"
             id="path1132"
             d="m 26.601976,12.871153 0.238797,-1.265623 0.83579,-1.002947"
             style="opacity:1;fill:none;stroke:#000000;stroke-width:0.26458300000000001;stroke-linecap:butt;stroke-linejoin:round;stroke-miterlimit:4;stroke-dasharray:none" />
          <path
             inkscape:connector-curvature="0"
             id="path1134"
             d="m 26.984051,15.712837 0.573113,-1.170105 0.620872,-0.596992"
             style="opacity:1;fill:none;stroke:#000000;stroke-width:0.26458300000000001;stroke-linecap:butt;stroke-linejoin:round;stroke-miterlimit:4;stroke-dasharray:none" />
          <path
             inkscape:connector-curvature="0"
             id="path1136"
             d="m 26.936291,17.575453 -0.477592,-0.979068 0.07164,-0.955187 -0.716392,-0.405955"
             style="opacity:1;fill:none;stroke:#000000;stroke-width:0.26458300000000001;stroke-linecap:butt;stroke-linejoin:round;stroke-miterlimit:4;stroke-dasharray:none" />
          <path
             inkscape:connector-curvature="0"
             id="path1138"
             d="m 26.864652,18.817197 0.405955,-0.477594 0.382075,0.692511"
             style="opacity:1;fill:none;stroke:#000000;stroke-width:0.26458300000000001;stroke-linecap:butt;stroke-linejoin:round;stroke-miterlimit:4;stroke-dasharray:none" />
          <path
             inkscape:connector-curvature="0"
             id="path1140"
             d="m 27.007932,16.835182 0.549232,-0.78803 0.09552,-0.668631 0.477594,-0.119398"
             style="opacity:1;fill:none;stroke:#000000;stroke-width:0.26458300000000001;stroke-linecap:butt;stroke-linejoin:round;stroke-miterlimit:4;stroke-dasharray:none" />
          <path
             sodipodi:nodetypes="cc"
             inkscape:connector-curvature="0"
             id="path1142"
             d="m 27.57488,14.547017 0.03004,-1.317668 -0.219127,-1.169991"
             style="opacity:1;fill:none;stroke:#000000;stroke-width:0.26458300000000001;stroke-linecap:butt;stroke-linejoin:round;stroke-miterlimit:4;stroke-dasharray:none" />
          <path
             inkscape:connector-curvature="0"
             id="path1144"
             d="M 26.064429,11.651934 26.233788,10.635777 25.928941,9.4333247"
             style="opacity:1;fill:none;stroke:#000000;stroke-width:0.26458300000000001;stroke-linecap:butt;stroke-linejoin:round;stroke-miterlimit:4;stroke-dasharray:none" />
          <path
             inkscape:connector-curvature="0"
             id="path1148"
             d="M 25.264713,9.7906734 23.97521,9.1220419"
             style="opacity:1;fill:none;stroke:#000000;stroke-width:0.26458300000000001;stroke-linecap:butt;stroke-linejoin:round;stroke-miterlimit:4;stroke-dasharray:none" />
        </g>
      </g>
      <path
         inkscape:connector-curvature="0"
         id="path1290"
         style="opacity:1;fill:#000000;stroke:none;stroke-width:0.26458300000000001;stroke-linecap:round;stroke-linejoin:round;stroke-miterlimit:4;stroke-dasharray:none"
         d="m 8.4666667,19.05 0.180351,0.300241 c 0.322712,2.23232 1.092644,4.423671 2.3135543,6.45852 a 0.79382937,0.79382937 0 0 0 0.02119,0.03101 c 1.075268,1.6129 2.023308,2.845586 2.965194,3.715018 0.01062,0.0098 0.02141,0.01819 0.03204,0.02791 -1.285789,-0.118 -3.689698,-0.537436 -4.4539953,-2.066032 C 8.4666667,25.400001 8.4666667,19.05 8.4666667,19.05 Z" />
      <g
         transform="matrix(-1,0,0,1,33.866668,0)"
         id="g1298">
        <path
           sodipodi:nodetypes="zzzzz"
           inkscape:connector-curvature="0"
           id="path1292"
           d="m 31.714581,15.558657 c 0.864213,0.6004 1.04381,1.088799 0.444066,2.099587 -0.599744,1.010789 -1.023725,1.277424 -2.128855,0.531324 -1.105128,-0.7461 -0.914028,-0.744387 -0.378237,-2.083493 0.535789,-1.339106 1.198813,-1.147817 2.063026,-0.547418 z"
           style="opacity:1;fill:#000000;stroke:none;stroke-width:1.58749999999999990;stroke-linecap:butt;stroke-linejoin:round;stroke-miterlimit:4;stroke-dasharray:none" />
        <path
           sodipodi:nodetypes="czzzzczcc"
           inkscape:connector-curvature="0"
           id="path1294"
           d="m 29.249207,18.092908 c 0,0 -1.590336,2.745916 -1.940111,3.886337 -0.34978,1.140421 -1.328304,1.942345 -1.767518,2.747573 -0.439215,0.805229 -0.489482,2.37829 -1.167102,3.237006 -0.67762,0.858716 -2.64078,1.659608 -3.713393,2.20406 -1.072613,0.544453 -1.776668,1.236069 -1.776668,1.236069 0.905935,0.01197 6.497262,-1.606806 8.220763,-5.31636 1.723501,-3.709554 2.04539,-4.980762 3.499629,-7.194136 -0.513965,-0.17177 -1.027931,-0.496263 -1.3556,-0.800549 z"
           style="opacity:1;fill:#000000;stroke:none;stroke-width:1.58749999999999990;stroke-linecap:butt;stroke-linejoin:round;stroke-miterlimit:4;stroke-dasharray:none" />
        <path
           sodipodi:nodetypes="cccc"
           inkscape:connector-curvature="0"
           id="path1296"
           d="m 28.503206,17.884364 c 0.31597,-0.773803 0.921734,-2.614708 1.524235,-3.031535 -0.233916,-0.224811 -0.889706,-0.355631 -1.168579,-0.355655 0.02538,0.711355 -0.291462,2.496684 -0.355656,3.38719 z"
           style="opacity:1;fill:#000000;stroke:none;stroke-width:0.26458300000000001;stroke-linecap:butt;stroke-linejoin:round;stroke-miterlimit:4;stroke-dasharray:none" />
      </g>
      <g
         transform="matrix(-1,0,0,1,33.866668,0)"
         id="g1358">
        <g
           id="g1354">
          <path
             style="opacity:1;fill:none;stroke:#000000;stroke-width:0.52916700000000005;stroke-linecap:butt;stroke-linejoin:round;stroke-miterlimit:4;stroke-dasharray:none;fill-opacity:1"
             d="M 25.88948,23.496863 C 28.256575,20.027056 28.366748,13.784915 28.256179,12.161089 28.14561,10.537264 25.299041,7.4294842 22.930528,0.80707864 23.027138,3.5518722 23.870526,5.5715514 23.205615,7.8276866 25.006251,10.562902 27.063477,18.509092 25.88948,23.496863 Z"
             id="path1320"
             inkscape:connector-curvature="0"
             sodipodi:nodetypes="czccc" />
          <path
             style="opacity:1;fill:none;stroke:#000000;stroke-width:0.26458300000000001;stroke-linecap:butt;stroke-linejoin:round;stroke-miterlimit:4;stroke-dasharray:none"
             d="m 24.478355,10.505154 1.178463,1.380485"
             id="path1322"
             inkscape:connector-curvature="0" />
          <path
             style="opacity:1;fill:none;stroke:#000000;stroke-width:0.26458300000000001;stroke-linecap:butt;stroke-linejoin:round;stroke-miterlimit:4;stroke-dasharray:none"
             d="m 23.569255,6.3973693 0.538726,1.4141554 0.841759,0.7407478 0.303033,1.2458034 0.774418,1.8182001"
             id="path1324"
             inkscape:connector-curvature="0" />
          <path
             style="opacity:1;fill:none;stroke:#000000;stroke-width:0.26458300000000001;stroke-linecap:butt;stroke-linejoin:round;stroke-miterlimit:4;stroke-dasharray:none"
             d="M 24.924666,8.5369897 24.478355,7.0034358 23.489019,5.5231337"
             id="path1326"
             inkscape:connector-curvature="0"
             sodipodi:nodetypes="ccc" />
          <path
             style="opacity:1;fill:none;stroke:#000000;stroke-width:0.26458300000000001;stroke-linecap:butt;stroke-linejoin:round;stroke-miterlimit:4;stroke-dasharray:none"
             d="M 24.478355,7.0034358 24.242663,5.6229508 24.512025,4.7475215"
             id="path1328"
             inkscape:connector-curvature="0" />
          <path
             style="opacity:1;fill:none;stroke:#000000;stroke-width:0.26458300000000001;stroke-linecap:butt;stroke-linejoin:round;stroke-miterlimit:4;stroke-dasharray:none"
             d="M 25.455751,8.3817716 25.861705,9.4802375 27.12733,9.981711"
             id="path1330"
             inkscape:connector-curvature="0" />
          <path
             style="opacity:1;fill:none;stroke:#000000;stroke-width:0.26458300000000001;stroke-linecap:butt;stroke-linejoin:round;stroke-miterlimit:4;stroke-dasharray:none"
             d="m 25.073676,7.4027042 1.002947,0.5969924"
             id="path1332"
             inkscape:connector-curvature="0" />
          <path
             style="opacity:1;fill:none;stroke:#000000;stroke-width:0.26458300000000001;stroke-linecap:butt;stroke-linejoin:round;stroke-miterlimit:4;stroke-dasharray:none"
             d="m 25.981104,11.486131 0.955187,2.173052 0.09552,3.820751 -0.668631,4.823698"
             id="path1334"
             inkscape:connector-curvature="0" />
          <path
             style="opacity:1;fill:none;stroke:#000000;stroke-width:0.26458300000000001;stroke-linecap:butt;stroke-linejoin:round;stroke-miterlimit:4;stroke-dasharray:none"
             d="m 25.575149,11.844327 0.644752,1.886495 0.76415,1.982015"
             id="path1336"
             inkscape:connector-curvature="0" />
          <path
             style="opacity:1;fill:none;stroke:#000000;stroke-width:0.26458300000000001;stroke-linecap:butt;stroke-linejoin:round;stroke-miterlimit:4;stroke-dasharray:none"
             d="m 26.601976,12.871153 0.238797,-1.265623 0.83579,-1.002947"
             id="path1338"
             inkscape:connector-curvature="0" />
          <path
             style="opacity:1;fill:none;stroke:#000000;stroke-width:0.26458300000000001;stroke-linecap:butt;stroke-linejoin:round;stroke-miterlimit:4;stroke-dasharray:none"
             d="m 26.984051,15.712837 0.573113,-1.170105 0.620872,-0.596992"
             id="path1340"
             inkscape:connector-curvature="0" />
          <path
             style="opacity:1;fill:none;stroke:#000000;stroke-width:0.26458300000000001;stroke-linecap:butt;stroke-linejoin:round;stroke-miterlimit:4;stroke-dasharray:none"
             d="m 26.936291,17.575453 -0.477592,-0.979068 0.07164,-0.955187 -0.716392,-0.405955"
             id="path1342"
             inkscape:connector-curvature="0" />
          <path
             style="opacity:1;fill:none;stroke:#000000;stroke-width:0.26458300000000001;stroke-linecap:butt;stroke-linejoin:round;stroke-miterlimit:4;stroke-dasharray:none"
             d="m 26.864652,18.817197 0.405955,-0.477594 0.382075,0.692511"
             id="path1344"
             inkscape:connector-curvature="0" />
          <path
             style="opacity:1;fill:none;stroke:#000000;stroke-width:0.26458300000000001;stroke-linecap:butt;stroke-linejoin:round;stroke-miterlimit:4;stroke-dasharray:none"
             d="m 27.007932,16.835182 0.549232,-0.78803 0.09552,-0.668631 0.477594,-0.119398"
             id="path1346"
             inkscape:connector-curvature="0" />
          <path
             style="opacity:1;fill:none;stroke:#000000;stroke-width:0.26458300000000001;stroke-linecap:butt;stroke-linejoin:round;stroke-miterlimit:4;stroke-dasharray:none"
             d="m 27.57488,14.547017 0.03004,-1.317668 -0.219127,-1.169991"
             id="path1348"
             inkscape:connector-curvature="0"
             sodipodi:nodetypes="cc" />
          <path
             style="opacity:1;fill:none;stroke:#000000;stroke-width:0.26458300000000001;stroke-linecap:butt;stroke-linejoin:round;stroke-miterlimit:4;stroke-dasharray:none"
             d="M 26.064429,11.651934 26.233788,10.635777 25.928941,9.4333247"
             id="path1350"
             inkscape:connector-curvature="0" />
          <path
             style="opacity:1;fill:none;stroke:#000000;stroke-width:0.26458300000000001;stroke-linecap:butt;stroke-linejoin:round;stroke-miterlimit:4;stroke-dasharray:none"
             d="M 25.264713,9.7906734 23.97521,9.1220419"
             id="path1352"
             inkscape:connector-curvature="0" />
        </g>
      </g>
      <path
         sodipodi:nodetypes="czczc"
         inkscape:connector-curvature="0"
         id="path974"
         d="m 10.583334,11.641667 c 0,0 2.381249,-6.6145836 6.349999,-6.6145836 3.968751,0 6.350001,6.6145836 6.350001,6.6145836 0,0 -2.38125,-4.4979169 -6.350001,-4.4979169 -3.96875,0 -6.349999,4.4979169 -6.349999,4.4979169 z"
         style="opacity:1;fill:#000000;stroke:none;stroke-width:0.52916700000000005;stroke-linecap:round;stroke-linejoin:round;stroke-miterlimit:4;stroke-dasharray:none" />
      <path
         style="fill:none;stroke:#000000;stroke-width:0.52916700000000005;stroke-linecap:round;stroke-linejoin:round;stroke-miterlimit:4;stroke-dasharray:none;fill-opacity:1"
         d="m 11.641667,8.4666667 c -3.1750003,5.2916663 -3.1750003,11.6416673 0,16.9333333 4.233333,6.35 6.35,6.35 10.583333,0 C 25.4,20.108334 25.4,13.758333 22.225,8.4666667 19.05,3.175 14.816667,3.175 11.641667,8.4666667 Z"
         id="path980"
         inkscape:connector-curvature="0"
         sodipodi:nodetypes="ccccc" />
      <path
         id="path1288"
         style="opacity:1;fill:none;stroke:#000000;stroke-width:0.52916700000000005;stroke-linecap:butt;stroke-linejoin:round;stroke-miterlimit:4;stroke-dasharray:none"
         d="m 16.933334,6.7975552 v 0.6967419 l -2.749631,1.0187548 v 1.4219005 l 2.749631,1.0187546 m -2.749631,15.296376 -1.393648,0.979263 m -0.69941,-5.236708 -1.376828,1.635822 m -0.7162323,-5.107625 -0.623221,0.31969 m 0.623221,-3.494691 -0.623221,-0.319692 M 14.183703,8.5130521 13.525274,7.9375001 m -1.232609,2.9320229 -0.978142,-0.565095 m 5.618811,12.260607 -2.749631,1.228349 v 2.456699 l 2.749631,1.22835 1e-6,2.684067 m -2.749631,-12.416084 -2.093059,1.789523 v 2.456699 l 2.093059,1.800745 2.749631,-1.228349 -1e-6,-3.231118 z m -2e-6,-7.8114636 -1.891037,0.9345706 -0.202022,2.316415 2.093059,1.385477 2.749631,-1.534027 v -2.083681 z m -2.093058,3.2509856 -2.0930593,2.159896 v 3.175001 l 2.0930593,1.015104 2.093059,-1.789524 v -3.175 z m 4.84269,-0.14855 -2.749631,1.534027 v 3.175001 l 2.749631,1.5875"
         inkscape:connector-curvature="0"
         sodipodi:nodetypes="ccccccccccccccccccccccccccccccccccccccccccccccc" />
      <path
         sodipodi:nodetypes="ccccccccccccccccccccccccccccccccccccccccccccccc"
         inkscape:connector-curvature="0"
         d="m 16.933334,6.7975552 v 0.6967419 l 2.749631,1.0187548 v 1.4219005 l -2.749631,1.0187546 m 2.749631,15.296376 1.393648,0.979263 m 0.69941,-5.236708 1.376828,1.635822 m 0.716232,-5.107625 0.623221,0.31969 m -0.623221,-3.494691 0.623221,-0.319692 m -4.809339,-6.5130899 0.658429,-0.575552 m 1.232609,2.9320229 0.978142,-0.565095 m -5.618811,12.260607 2.749631,1.228349 v 2.456699 l -2.749631,1.22835 -10e-7,2.684067 m 2.749631,-12.416084 2.093059,1.789523 v 2.456699 l -2.093059,1.800745 -2.749631,-1.228349 10e-7,-3.231118 z m 2e-6,-7.8114636 1.891037,0.9345706 0.202022,2.316415 -2.093059,1.385477 -2.749631,-1.534027 v -2.083681 z m 2.093058,3.2509856 2.093059,2.159896 v 3.175001 l -2.093059,1.015104 -2.093059,-1.789524 v -3.175 z m -4.84269,-0.14855 2.749631,1.534027 v 3.175001 l -2.749631,1.5875"
         style="opacity:1;fill:none;stroke:#000000;stroke-width:0.52916700000000005;stroke-linecap:butt;stroke-linejoin:round;stroke-miterlimit:4;stroke-dasharray:none"
         id="path967" />
    </g>
  </g>
</svg>
